<svg viewBox="0 0 256 256" xmlns="http://www.w3.org/2000/svg" width="256" height="256"><path fill="#fff" d="M245.5 128A117.5 117.5 0 0 1 128 245.5 117.5 117.5 0 0 1 10.5 128a117.5 117.5 0 0 1 235 0"/><path stroke="#000" stroke-width="2.5" d="M127.78 10.004A118 118 0 0 0 44.63 44.5c-46.118 46.045-46.176 120.76-.131 166.875 46.045 46.118 120.76 46.176 166.875.131 46.118-46.045 46.176-120.76.131-166.875a118 118 0 0 0-83.725-34.627zm1.141.503c29.967.242 59.695 11.905 82.23 34.477 45.85 45.922 45.792 120.32-.13 166.17-22.961 22.925-60.16 22.896-83.085-.065-22.925-22.96-22.896-60.16.065-83.085 23.206-23.169 23.235-60.765.065-83.97-18.542-18.57-47.228-23.276-70.33-10.829 21.208-15.771 46.355-22.899 71.185-22.698zm-95.42 65.13h20c4.971 21.073 12.602 39.709 20.375 58.215 7.95-20.663 16.602-40.625 27.625-58.215h20c-24.464 48.682-51.095 82.03-12 125h-20c-23.784-38.621-41.219-73.835-56-125z"/><path d="M146.5 55.36c39.097 42.968 12.464 76.32-12 125h20c11.024-17.59 19.675-37.551 27.625-58.215 7.773 18.505 15.403 37.141 20.375 58.215h20c-14.78-51.165-32.217-86.38-56-125z"/></svg>