<?xml version="1.0" encoding="iso-8859-1"?><!-- Generator: Adobe Illustrator 23.0.3, SVG Export Plug-In . SVG Version: 6.00 Build 0)  --><svg xmlns="http://www.w3.org/2000/svg" xmlns:xlink="http://www.w3.org/1999/xlink" viewBox="0 0 48 48" width="240px" height="240px"><g><path style="fill:none;stroke:#D32F2F;stroke-width:4;stroke-linecap:round;stroke-linejoin:round;stroke-miterlimit:10;" d="   M29,19h-7c-2.209,0-4,1.791-4,4v0c0,2.209,1.791,4,4,4h2c2.209,0,4,1.791,4,4v0c0,2.209-1.791,4-4,4H10c-2.209,0-4-1.791-4-4V16"/><path style="fill:none;stroke:#D32F2F;stroke-width:4;stroke-linecap:round;stroke-linejoin:round;stroke-miterlimit:10;" d="   M11.938,29V17c0-2.209,1.791-4,4-4h22C40.181,13,42,14.819,42,17.062v0c0,2.244-1.819,4.062-4.062,4.062h0   c-2.175,0-3.937,1.763-3.937,3.937v7.875"/></g></svg>