<svg xmlns="http://www.w3.org/2000/svg" viewBox="4.4 11.8 42.4 27.6" width="256" height="166"><g fill="none" stroke="#d32f2f" stroke-width="4" stroke-linecap="round" stroke-linejoin="round"><path d="M30.933 20.267h-7.467a4.267 4.267 0 0 0-4.267 4.267 4.267 4.267 0 0 0 4.267 4.267h2.133a4.267 4.267 0 0 1 4.267 4.267 4.267 4.267 0 0 1-4.267 4.267H10.667A4.267 4.267 0 0 1 6.4 33.068V17.067"/><path d="M12.734 30.933v-12.8a4.267 4.267 0 0 1 4.267-4.267h23.467a4.33 4.33 0 0 1 4.332 4.333 4.33 4.33 0 0 1-4.333 4.333 4.2 4.2 0 0 0-4.199 4.199v8.4"/></g></svg>
