<svg xmlns="http://www.w3.org/2000/svg" width="256.875" height="256.849" viewBox="0 0 256.875 256.849" xml:space="preserve"><path fill="#fff" d="M255.605 128.462a127.01 127.01 0 0 1-127.01 127.01 127.01 127.01 0 0 1-127.01-127.01 127.01 127.01 0 0 1 254.02 0"/><path fill="#3e5ba9" d="M228.533 206.853c16.958-21.589 27.072-48.809 27.072-78.392 0-70.146-56.864-127.01-127.01-127.01-15.259 0-29.888 2.693-43.442 7.626 51.563 27.048 119.769 115.295 143.38 197.775"/><path fill="#9f1d20" d="M110.404 82.469C90.591 61.125 68.403 44.173 44.903 32.931 18.353 56.21 1.584 90.376 1.584 128.462c0 32.024 11.856 61.276 31.413 83.617 17.24-51.798 49.652-101.722 77.406-129.609m23.404 28.8c-27.496 29.634-54.896 81.508-64.813 129.369 17.774 9.463 38.059 14.834 59.601 14.834 22.147 0 42.966-5.674 61.093-15.639-10.449-48.279-30.172-92.494-55.881-128.564"/></svg>